<svg xmlns="http://www.w3.org/2000/svg" style="display: none;">
    <symbol id="play-fill" viewBox="0 0 16 16">
        <path d="m11.596 8.697-6.363 3.692c-.54.313-1.233-.066-1.233-.697V4.308c0-.63.692-1.01 1.233-.696l6.363 3.692a.802.802 0 0 1 0 1.393"/>
    </symbol>
    <symbol id="stop-fill" viewBox="0 0 16 16">
        <path d="M5 3.5h6A1.5 1.5 0 0 1 12.5 5v6a1.5 1.5 0 0 1-1.5 1.5H5A1.5 1.5 0 0 1 3.5 11V5A1.5 1.5 0 0 1 5 3.5z"/>
    </symbol>
    <symbol id="arrow-repeat" viewBox="0 0 16 16">
        <path d="M11.534 7h3.932a.25.25 0 0 1 .192.41l-1.966 2.36a.25.25 0 0 1-.384 0l-1.966-2.36a.25.25 0 0 1 .192-.41m-11 2h3.932a.25.25 0 0 0 .192-.41L2.692 6.23a.25.25 0 0 0-.384 0L.342 8.59A.25.25 0 0 0 .534 9"/>
        <path fill-rule="evenodd" d="M8 3c-1.552 0-2.94.707-3.857 1.818a.5.5 0 1 1-.771-.636A6.002 6.002 0 0 1 13.917 7H12.9A5 5 0 0 0 8 3M3.1 9a5.002 5.002 0 0 0 8.757 2.182.5.5 0 1 1 .771.636A6.002 6.002 0 0 1 2.083 9z"/>
    </symbol>
    <symbol id="triangle" viewBox="0 0 129 115">
        <path fill="#003791" d="M64.5 0L129 115H0L64.5 0zm0 24.531L20.489 103h88.021L64.5 24.531z"/>
    </symbol>
    <symbol id="circle" viewBox="0 0 129 129">
        <path fill="#003791" d="M64.5 0C100.122 0 129 28.878 129 64.5S100.122 129 64.5 129 0 100.122 0 64.5 28.878 0 64.5 0zm0 12C35.505 12 12 35.505 12 64.5S35.505 117 64.5 117 117 93.495 117 64.5 93.495 12 64.5 12z"/>
    </symbol>
    <symbol id="cross" viewBox="0 0 110 110">
        <path fill="#003791" d="M101 .515L109.485 9l-46 46 46 46-8.485 8.485-46-46-46 46L.515 101l46-46-46-46L9 .515l46 46 46-46z"/>
    </symbol>
    <symbol id="square" viewBox="0 0 113 113">
        <path fill="#003791" d="M113 0v113H0V0h113zm-12 12H12v89h89V12z"/>
    </symbol>

    <symbol id="waves" viewBox="0 0 100 100" preserveAspectRatio="none">
        <path id="water" fill="#0db7ed" d="M 100 200 V200 H0 V 50 Q 12.5 42 25 50 T 50 50 T 75 50 T 100 50 T 125 50 T 150 50 T 175 50 T 200 50 V 200 z">
            <animate  class="start_svg_animation" fill="freeze" begin="indefinite" attributeName="d" to="M 100 200 V200 H0 V 50 Q 12.5 50 25 50 T 50 50 T 75 50 T 100 50 T 125 50 T 150 50 T 175 50 T 200 50 V 200 z" dur="10000ms"/>
        </path>
        <path id="water2" fill="#0db7ed" d="M 100 200 V200 H0 V 50 Q 12.5 45 25 50 T 50 50 T 75 50 T 100 50 T 125 50 T 150 50 T 175 50 T 200 50 V 200 z">
            <animate class="start_svg_animation" fill="freeze" begin="indefinite" attributeName="d" to="M 100 200 V200 H0 V 50 Q 12.5 50 25 50 T 50 50 T 75 50 T 100 50 T 125 50 T 150 50 T 175 50 T 200 50 V 200 z" dur="10000ms"/>
        </path>
    </symbol>

    <symbol id="logo" viewBox="0 0 562.64 422.01">
        <defs>
        <style>
            .cls-1 {
                fill: #fff;
            }

            .cls-2 {
                fill: #101526;
            }
            </style>
        </defs>
        <g id="blanco_fondo">
            <path id="blanco_fondo_ballena" class="cls-1" d="m550.77,161.37c-8.12,14.29-23.74,31.38-52.91,35.9.91,46.68-8.34,81.79-28.83,109.92-21.65,29.73-56.8,53.16-110.26,73.39,7.73,6.63,15.93,11.5,25.71,13.34l37.02,7-35.62,12.28c-18.25,6.3-34.67,8.8-49.25,8.81-26.96,0-47.61-8.58-61.89-17.62-5.57-3.53-10.61-7.37-15.14-11.34l-6.68,1.42c-53.13,11.32-100.86,2.15-131.55-7.54-39.93-12.61-75.35-34.09-97.17-58.94-21.54-24.53-29.02-51.15-21.16-75.14-.07-.88-.23-2.27-.36-3.45-1.61-14.39-5.88-52.6,24.41-92.47,17.5-23.05,43.27-37.28,78.6-43.35l.76-61.89,19.56-6.34c-.36-4.26.48-8.63,2.6-12.51,5.11-9.36,13.51-13.65,20.25-17.1l.19-.09c6.41-3.27,12.31-5.68,18.05-7.36,1.17-.34,1.83-.76,1.97-.87C178.19-1.14,188.96-.26,196.83.39l.57.04c6.04.49,11.2,2.82,15.07,6.79,7.65,1.7,14.48,4.68,21.12,7.57,5.56,2.43,10.81,4.72,16.14,6.07,5.24,1.34,9.56,3.05,13.22,5.23,3.64,2.17,6.44,5.34,8.35,9.47l47.37,14.81-1.15,93.97c5.26,5.85,10.81,12.84,16.62,20.17,24.03,30.29,53.94,67.99,89.26,58.4l.25-.07c6.53-1.59,19.18-9.96,21.03-25.43-33.31-3.8-51.54-18.06-61.1-29.76-14.84-18.18-20.23-43.19-16.02-74.32.09-1.32.14-2.2.23-2.97.86-7.74,7.08-9.29,8.32-9.53,2.9-.54,8.29-.37,11.7,6.93,2.23,4.79,9.01,19.34,42.17,15.9,11.67-1.2,24.25,4.77,32.84,12.9,8.4-9.82,20.77-15.31,36.96-16.36,1.66-.11,3.51-.1,5.48-.1h.2c13.62,0,26.37-1.28,32.92-16.05l8.36-18.83,9.62,18.22c8.96,16.96,9.37,51.58-5.59,77.93Z"/>
        </g>
        <g id="azul_conjunto_ballena">
            <path id="azul_ballena" class="cls-2" d="m547.52,88.11c-11.32,25.5-37.37,21.44-47.09,22.07-36.28,2.35-35.86,29.5-37.45,23.91-2.83-9.9-18.89-21.83-31.97-20.48-55.53,5.75-52.47-35.11-53.49-19.28-13.35,97.02,76.96,92.95,77.08,93.96,2.9,25.25-15.77,41.15-28.58,44.27-52.84,14.34-91.17-55.63-118.55-84.35l1.11-90.52-95.73-29.92-96.49,31.22-.78,63.21c-35.36,4.59-62.52,17.07-80.53,40.78C.59,208.34,14.61,250.09,12.93,254.83c-24.95,70.62,113.02,156.47,237.91,129.86-14.19-16.56-26.7-39.09-27.85-59.1-.14-2.45,8.79,9.27,10.79,14.36,13.27,33.81,60.61,94.23,148.84,63.8-46.46-8.78-59.29-71.46-120.17-87.57-.71-.18,1.8.09,3.06.23,2.48.28,4.3.74,5.29.97,3.08.7,6.17,1.39,9.23,2.13,24.67,6.03,45.56,28.03,47.13,29.66,3.54,3.71,63.38-5.39,116.87-47.9-41.62,43.53-104.68,61.53-104.89,61.23,3.31,4.6,4.9,5.86,8.92,11.38,110.65-40.06,143.88-91.6,139.5-185.6,67.81-3.53,71.49-78.34,59.96-100.17Zm-335.45,245.71c.25.06,6.61,21.03,6.61,21.32-50.7-3.41-90.6-38.73-101.4-61.91,61.95,13.59,44.24,29.2,94.79,40.59Zm-43.45-53.52c-.02-9.15,6.98-15.88,16.47-15.9,9.07-1.34,16.83,8.6,16.59,15.59-.31,8.99-7.41,16.43-16.19,16.66-9.96.25-16.86-7.69-16.87-16.35ZM298.25,58.1l-86.26,34.68-85.32-33.48,86.19-27.88,85.39,26.68Zm-178.48,5.96l88.73,34.82-1.07,87.43-88.73-34.82,1.07-87.43Zm-4.43,77.61l-.09,7.17c-45.86,1.18-77.98,29.66-86.24,75.2-3.88-54.54,35.82-82.29,86.33-82.37Zm-90.66,115.62c10.92,6.72,36.38,9.29,62.63,12.93,26.26,3.64,53.33,8.35,67.49,19.34-37.52-16.13-97.45-10.5-133.35-26.59-.25-.12,3.23-5.68,3.23-5.68Zm-.17,21.77l20.78,4.21c8.92,41.63,48.24,72.39,49.47,73.37-58.86-32.48-69.15-76.32-70.25-77.58Zm25.66,5.46l25.2,3.51c13.28,40.43,45.3,74.52,115.81,88.51-100.13,8.35-136.13-68.76-141.01-92.02Zm179.49,88.1c-86.52,10.35-139.49-52.45-148.68-83.99,8.03.29,29.78,3.28,30.83,5.25,7.91,14.79,18.89,27.14,32.05,37.33,24.65,19.08,45.14,24.63,77.02,28.61.38.05,8.51,12.36,8.78,12.8Zm74.32-222.44l-89.6,36.03,1.07-87.33,89.6-36.03-1.07,87.33Z"/>
            <path id="azul_ojo" class="cls-2" d="m185.11,268.58c-6.31,0-11.42,5.11-11.42,11.42s5.11,11.42,11.42,11.42,11.42-5.11,11.42-11.42-5.11-11.42-11.42-11.42Zm-4.6,10.43c-1.94,0-3.51-1.57-3.51-3.51s1.57-3.51,3.51-3.51,3.51,1.57,3.51,3.51-1.57,3.51-3.51,3.51Z"/>
            <g id="azul_rejillas">
            <path class="cls-2" d="m289.04,57.63l-76.21-23.62c-1.15-.36-2.65-.33-3.8.08l-71.86,25.2c-1.13.4-1.68.59-1.67,1.38.01.77.39,1.11,1.5,1.46l75.45,25.99c2.03.08,76.59-26.86,76.59-26.86,1.13-.4,1.78-1.08,1.76-1.87-.01-.77-.66-1.42-1.77-1.76Zm-145.57,5.47c-.63-.46-.9-.96-.82-1.53.16-1.13,1.84-2.97,6.03-4.44l54.94-19.27c2.42-.85,5.1-1.33,7.53-1.44,2.94-.13,5.52.28,6.87,1.24.63.46.9.96.82,1.53-.16,1.13-1.84,2.97-6.03,4.44l-54.94,19.27c-5.34,1.87-11.94,1.97-14.4.2Zm16.08,4.94c-.63-.46-.9-.96-.82-1.53.16-1.13,1.84-2.97,6.03-4.44l54.94-19.27c2.42-.85,5.1-1.33,7.53-1.44,2.94-.13,5.52.28,6.87,1.24.63.46.9.96.82,1.53-.16,1.13-1.84,2.97-6.03,4.44l-54.94,19.27c-5.34,1.87-11.94,1.97-14.4.2Zm16.08,4.94c-.63-.46-.9-.96-.82-1.53.16-1.13,1.84-2.97,6.03-4.44l54.94-19.27c2.42-.85,5.1-1.33,7.53-1.44,2.94-.13,5.52.28,6.87,1.24.63.46.9.96.82,1.53-.16,1.13-1.84,2.97-6.03,4.44l-54.94,19.27c-5.34,1.87-11.94,1.97-14.4.2Zm16.08,4.94c-.63-.46-.9-.96-.82-1.53.16-1.13,1.84-2.97,6.03-4.44l54.94-19.27c2.42-.85,5.1-1.33,7.53-1.44,2.94-.13,5.52.28,6.87,1.24.63.46.9.96.82,1.53-.16,1.13-1.84,2.97-6.03,4.44l-54.94,19.27c-5.34,1.87-11.94,1.97-14.4.2Zm85.42-14.52l-54.94,19.27c-5.34,1.88-11.94,1.97-14.4.2-.63-.45-.9-.96-.82-1.53.16-1.13,1.84-2.97,6.03-4.44l54.94-19.27c2.42-.85,5.1-1.33,7.53-1.44,2.94-.13,5.52.28,6.87,1.24.64.46.9.96.82,1.53-.16,1.13-1.84,2.97-6.03,4.44Z"/>
            <path class="cls-2" d="m124.64,150.32l74.48,29.23c.44.17.91.25,1.38.23.61-.03,1.22-.22,1.74-.58.89-.6,1.44-1.59,1.45-2.64l.9-73.54c.02-1.31-.78-2.48-2.02-2.97l-74.48-29.23c-1.03-.4-2.2-.27-3.12.35-.89.6-1.44,1.59-1.45,2.64l-.9,73.54c-.02,1.31.78,2.48,2.02,2.97Zm63.47-40.92c.07-5.32,3.17-9.68,6.96-9.86.07,0,.13,0,.2,0,1.47,0,2.87.61,4.05,1.8,1.82,1.83,2.88,4.8,2.85,7.95l-.69,56.23c-.07,5.41-3.28,9.8-7.16,9.86-1.47,0-2.87-.61-4.05-1.8-1.82-1.83-2.88-4.8-2.85-7.94l.69-56.23Zm-15.65-6.21c.07-5.32,3.17-9.68,6.96-9.86.07,0,.13,0,.2,0,1.47,0,2.87.61,4.05,1.8,1.82,1.83,2.88,4.8,2.84,7.94l-.69,56.23c-.07,5.41-3.25,9.84-7.16,9.86-1.47,0-2.87-.61-4.05-1.8-1.82-1.83-2.88-4.8-2.84-7.94l.69-56.23Zm-15.65-6.21c.07-5.32,3.17-9.68,6.96-9.86.07,0,.13,0,.2,0,1.47,0,2.87.61,4.05,1.8,1.82,1.83,2.88,4.8,2.84,7.94l-.69,56.23c-.07,5.41-3.26,9.8-7.16,9.86-1.47,0-2.87-.61-4.05-1.8-1.82-1.83-2.88-4.8-2.85-7.94l.69-56.23Zm-15.65-6.21c.07-5.32,3.17-9.68,6.96-9.86.07,0,.13,0,.2,0,1.47,0,2.87.61,4.05,1.8,1.82,1.83,2.88,4.8,2.85,7.94l-.69,56.23c-.07,5.41-3.25,9.83-7.16,9.86-1.47,0-2.87-.61-4.05-1.8-1.82-1.83-2.88-4.8-2.84-7.94l.69-56.23Zm-15.65-6.21c.07-5.32,3.17-9.68,6.96-9.86.07,0,.13,0,.2,0,1.47,0,2.87.61,4.05,1.8,1.82,1.83,2.88,4.8,2.84,7.94l-.69,56.23c-.07,5.41-3.27,9.79-7.16,9.86-1.47,0-2.87-.61-4.05-1.8-1.82-1.83-2.88-4.8-2.85-7.95l.69-56.23Z"/>
            <path class="cls-2" d="m219.73,179.05c.6.41,1.31.61,2.02.57.38-.02.76-.1,1.12-.24l75.21-30.24c1.25-.5,2.06-1.67,2.08-2.97l.9-73.54c.01-1.06-.49-2.02-1.37-2.62-.92-.63-2.1-.75-3.14-.33l-75.21,30.24c-1.25.5-2.06,1.67-2.08,2.97l-.9,73.54c-.01,1.06.49,2.02,1.37,2.62Zm65.03-95.56c.07-5.32,3.17-9.68,6.96-9.86.07,0,.13,0,.2,0,1.47,0,2.87.61,4.05,1.8,1.82,1.83,2.88,4.8,2.85,7.94l-.69,56.23c-.07,5.41-3.3,9.82-7.15,9.86-1.47,0-2.87-.61-4.05-1.8-1.82-1.83-2.88-4.8-2.84-7.94l.69-56.23Zm-15.81,6.42c.07-5.32,3.17-9.68,6.96-9.86.07,0,.13,0,.2,0,1.47,0,2.87.61,4.05,1.8,1.82,1.83,2.88,4.8,2.85,7.94l-.69,56.23c-.07,5.41-3.22,9.83-7.15,9.86-1.47,0-2.87-.61-4.05-1.8-1.82-1.83-2.88-4.8-2.85-7.94l.69-56.23Zm-15.81,6.42c.07-5.32,3.17-9.68,6.96-9.86.07,0,.13,0,.2,0,1.47,0,2.87.61,4.05,1.8,1.82,1.83,2.88,4.8,2.84,7.94l-.69,56.23c-.07,5.41-3.27,9.82-7.16,9.86-1.47,0-2.87-.61-4.05-1.8-1.82-1.83-2.88-4.8-2.84-7.94l.69-56.23Zm-15.81,6.42c.07-5.32,3.17-9.68,6.96-9.86.06,0,.13,0,.2,0,1.47,0,2.87.61,4.05,1.8,1.82,1.83,2.88,4.8,2.84,7.94l-.69,56.23c-.07,5.41-3.28,9.82-7.16,9.86-1.47,0-2.87-.61-4.05-1.8-1.82-1.83-2.88-4.8-2.85-7.94l.69-56.23Zm-15.81,6.42c.07-5.41,3.27-9.83,7.16-9.86,1.47,0,2.87.61,4.05,1.8,1.82,1.83,2.88,4.8,2.85,7.94l-.69,56.23c-.07,5.41-3.26,9.82-7.16,9.86-1.47,0-2.87-.61-4.05-1.8-1.82-1.83-2.88-4.8-2.84-7.94l.69-56.23Z"/>
            </g>
        </g>
        <g id="blanco_fondo-2" data-name="blanco_fondo">
            <path id="blanco_fonodo_control" class="cls-1" d="m255.68,75.81v.02c-2.71,3.74-5.71,7.66-9.4,11.02-5.51,5.04-11.86,7.59-18.91,7.59-.76,0-1.52-.03-2.3-.09-5.99-.45-11.67-6.19-12.15-12.29-.33-4.35,2.54-11.79,6.03-20.34.56-1.38,1.17-2.87,1.63-4.07-2.04.03-4.65-.38-7.01-1.59-2.53-1.3-5.62-3.99-6.5-9.47-.13-.07-.25-.15-.39-.22-1.72-1.02-4.93-2.93-8.85-2.35-3.71.53-10.84.34-14.31-3.52l-22.2,13.65c-5.28,2.73-11.01,5.21-17.81,2.93-3.9-1.32-7.02-4.34-8.57-8.28-1.57-4.02-1.31-8.45.7-12.13,3.92-7.19,10.5-10.55,16.87-13.8l.18-.1c5.98-3.05,11.42-5.27,16.66-6.8,2.14-.63,3.98-1.59,5.16-2.68,6.57-6.17,14.61-5.51,21.7-4.93l.54.04c4.68.39,8.51,2.35,11.09,5.66.09.12.17.23.25.34.02.04.05.08.08.12,7.89,1.36,15.18,4.54,22.23,7.61,5.61,2.45,11.4,4.98,17.36,6.49,4.41,1.12,8.15,2.58,11.1,4.34,5.23,3.12,6.66,9.14,7.38,14.62,1.47,11.5-4.65,20.01-10.56,28.23Z"/>
        </g>
        <g id="azul_control">
            <path id="azul_cuerpo_control" class="cls-2" d="m264.25,47.83c-.66-5.1-1.88-10.45-6.42-13.16-3.1-1.84-6.8-3.16-10.57-4.12-13.73-3.48-25.74-11.84-39.92-14.14-.41-.07-.76-.7-1.08-1.12-2.45-3.15-5.94-4.59-9.67-4.9-7.27-.59-14.64-1.35-20.72,4.35-1.59,1.48-3.83,2.51-5.95,3.14-5.68,1.66-11.08,4-16.31,6.67-6.29,3.21-12.55,6.36-16.21,13.07-3.55,6.51-.39,15.14,6.75,17.55,6.04,2.03,11.14-.16,16.26-2.8l23.7-14.59c2.08,4.53,9.75,4.78,13.43,4.26,6.46-.95,11.16,3.73,11.36,3.1,1.08,11.89,13.03,10.77,14.1,10.15,2.32-1.35-8.63,19.37-8.08,26.62.39,5.01,5.25,10.07,10.31,10.45,7.61.58,14.12-1.87,19.7-6.99,3.49-3.19,6.37-6.91,9.11-10.71,5.77-8.02,11.59-16.1,10.21-26.83Zm-86.29-26.49c-2.84-.63-17.37,7.92-28.34,13.71-.71.37-1.97.49-2.47-.68-.49-1.16.44-1.61,1.17-2.22,5.62-4.69,24.66-12.91,27.58-13.98-.59,1.81,2.52,3.28,2.07,3.18Zm3.93-.79c-1.35-.64-2.41-1.38-3.09-2.18-.52-.61-.82-1.25-.84-1.9-.1-3.06,5.77-5.22,13.12-4.82,7.35.4,13.4,3.2,13.5,6.26.1,3.06-5.77,5.22-13.12,4.82-3.73-.2-7.12-1.02-9.57-2.18Zm12.8,11.68c-2.1-.12-4-.58-5.37-1.23-.76-.36-1.36-.77-1.74-1.22-.29-.35-.46-.71-.48-1.07-.06-1.72,3.24-2.93,7.38-2.71,4.14.22,7.53,1.81,7.59,3.52.06,1.72-3.24,2.94-7.38,2.72Zm12.43,5.99c-.85-.05-1.61-.23-2.17-.5-.31-.15-.55-.31-.7-.49-.12-.14-.19-.28-.19-.43-.03-.7,1.31-1.18,2.98-1.1s3.04.73,3.06,1.42c.03.7-1.31,1.19-2.98,1.1Zm-6.93-12.34c0-1.4,10.92-6.72,10.92-6.72l29.14,11.34s-7.53,1.48-10.23,7.83c0,0-29.82-12.04-29.82-12.45Zm21.23,18.71c-2.1-.12-4-.58-5.37-1.23-.76-.36-1.36-.77-1.74-1.22-.29-.35-.46-.71-.48-1.07-.06-1.72,3.24-2.93,7.38-2.71,4.14.22,7.53,1.81,7.59,3.52.06,1.72-3.24,2.94-7.38,2.72Zm3.83,24.55c-.54.95-1,2.39-2.45,1.77-1.35-.58-1.79-1.94-1.25-3.35,2.55-6.69,7.37-12,10.99-18.06.6-1,.75-1.49,1.7-.87,1.36.89,2.84,1.77,5.42,1.93-4.77,2.53-10.67,11.94-14.42,18.58Zm20.28-21.56c-7.36-.35-13.34-3.93-13.37-7.99-.03-4.06,5.91-7.06,13.26-6.7,7.36.35,13.34,3.93,13.37,7.99.03,4.06-5.91,7.06-13.26,6.7Z"/>
            <g id="azul_botones">
            <path id="azul_izquierda" class="cls-2" d="m185.95,16.54c.06.02.13.04.21.05l1.31.19c.28.04.58,0,.76-.11l.1-.06,1.59-.93c.18-.1.19-.25.03-.36l-.75-.53s-.1-.06-.16-.08l-3.37-1.18c-.3-.11-.73-.08-.96.06l-2.26,1.33c-.23.14-.18.33.12.44l1.53.54,1.84.64Z"/>
            <path id="azul_abajo" class="cls-2" d="m190.88,17.98h-.02s-2.17-.77-2.17-.77c-.13-.05-.29-.06-.44-.06-.12,0-.24.01-.35.04l-1.16.34c-.07.02-.12.04-.17.07l-2.6,1.53c-.23.14-.18.33.12.44l2.92,1.02c.3.11.73.08.96-.06l1.42-.83.9-.53.29-.17s.08-.06.11-.09l.43-.6c.09-.13,0-.26-.23-.34Z"/>
            <path id="azul_derecha" class="cls-2" d="m195.89,17.14l-1.31-.19c-.28-.04-.58,0-.76.11l-1.69.99c-.18.1-.19.25-.03.36l.75.53s.1.06.16.08l3.37,1.18c.3.11.73.08.96-.06l2.22-1.31.04-.02c.22-.13.17-.32-.1-.42-.01,0-.01,0-.03-.01l-3.37-1.18c-.06-.02-.13-.04-.21-.05Z"/>
            <path id="azul_arriba" class="cls-2" d="m193.8,16.26c.23.08.55.09.79.02l1.16-.34c.07-.02.12-.04.17-.07l.99-.58,1.61-.95c.23-.14.18-.33-.12-.44l-2.92-1.02c-.3-.11-.73-.08-.96.06l-2.6,1.53s-.09.06-.11.09l-.11.16-.31.44c-.09.13,0,.26.23.34l2.19.77Z"/>
            <path id="azul_cuadro" class="cls-2" d="m242.97,37.78c0-1.15-1.7-2.08-3.79-2.08s-3.79.93-3.79,2.08,1.7,2.08,3.79,2.08,3.79-.93,3.79-2.08Z"/>
            <path id="azul_equis" class="cls-2" d="m241.61,40.74c-2.09,0-3.79.93-3.79,2.08s1.7,2.08,3.79,2.08,3.79-.93,3.79-2.08-1.7-2.08-3.79-2.08Z"/>
            <path id="azul_circulo" class="cls-2" d="m251.34,40.24c-2.09,0-3.79.93-3.79,2.08s1.7,2.08,3.79,2.08,3.79-.93,3.79-2.08-1.7-2.08-3.79-2.08Z"/>
            <path id="azul_triangulo" class="cls-2" d="m252.88,37.11c0-1.15-1.7-2.08-3.79-2.08s-3.79.93-3.79,2.08,1.7,2.08,3.79,2.08,3.79-.93,3.79-2.08Z"/>
            </g>
        </g>
    </symbol>            
</svg>